<svg version="1.2" baseProfile="tiny-ps" xmlns="http://www.w3.org/2000/svg" viewBox="0 0 1627 369" width="1627" height="369">
	<title>Blog_section</title>
	<style>
		tspan { white-space:pre }
		.shp0 { fill: #fe3e57 } 
		.shp1 { fill: #34c3ff } 
	</style>
	<g id="Blog_section">
		<g id="Geometric Shape">
			<path id="Shape 24" class="shp0" d="M1593.5 309C1580.52 309 1570 319.52 1570 332.5C1570 345.48 1580.52 356 1593.5 356C1606.48 356 1617 345.48 1617 332.5C1617 319.52 1606.48 309 1593.5 309ZM1593.5 351.19C1583.17 351.19 1574.8 342.83 1574.8 332.5C1574.8 322.17 1583.17 313.8 1593.5 313.8C1603.83 313.8 1612.2 322.17 1612.2 332.5C1612.2 342.83 1603.83 351.19 1593.5 351.19ZM1593.52 326.89C1590.42 326.89 1587.9 329.38 1587.89 332.48C1587.89 335.58 1590.38 338.09 1593.48 338.1C1596.58 338.11 1599.1 335.61 1599.11 332.52C1599.12 329.42 1596.61 326.9 1593.52 326.89Z" />
			<path id="Shape 22" class="shp1" d="M81.4 28.77C80.2 28.77 79.24 29.73 79.24 30.92C79.24 32.11 80.2 33.08 81.4 33.08C82.59 33.08 83.56 32.11 83.56 30.92C83.56 29.73 82.59 28.77 81.4 28.77ZM66.99 28.77C65.8 28.77 64.83 29.73 64.83 30.92C64.83 32.11 65.8 33.08 66.99 33.08C68.18 33.08 69.15 32.11 69.15 30.92C69.15 29.73 68.18 28.77 66.99 28.77ZM66.99 14.38C65.8 14.38 64.83 15.35 64.83 16.54C64.83 17.73 65.8 18.7 66.99 18.7C68.18 18.7 69.15 17.73 69.15 16.54C69.15 15.35 68.18 14.38 66.99 14.38ZM52.58 14.38C52.58 14.38 52.58 14.38 52.58 14.38L52.58 14.38C51.39 14.38 50.42 15.35 50.42 16.54C50.42 17.73 51.39 18.7 52.58 18.7L52.58 18.7C52.58 18.7 52.58 18.7 52.58 18.7C53.78 18.7 54.75 17.73 54.75 16.54C54.75 15.35 53.78 14.38 52.58 14.38ZM74.19 35.96C73 35.96 72.03 36.92 72.03 38.12C72.03 39.31 73 40.27 74.19 40.27C75.39 40.27 76.35 39.31 76.35 38.12C76.35 36.92 75.39 35.96 74.19 35.96ZM88.6 35.96C87.41 35.96 86.44 36.92 86.44 38.12C86.44 39.31 87.41 40.27 88.6 40.27C89.79 40.27 90.76 39.31 90.76 38.12C90.76 36.92 89.79 35.96 88.6 35.96ZM74.19 21.57C73 21.57 72.03 22.54 72.03 23.73C72.03 24.92 73 25.89 74.19 25.89C75.39 25.89 76.35 24.92 76.35 23.73C76.35 22.54 75.39 21.57 74.19 21.57ZM59.79 21.57C58.59 21.57 57.63 22.54 57.63 23.73C57.63 24.92 58.59 25.89 59.79 25.89C60.98 25.89 61.95 24.92 61.95 23.73C61.95 22.54 60.98 21.57 59.79 21.57ZM95.81 57.53C94.61 57.53 93.64 58.5 93.64 59.69C93.64 60.88 94.61 61.85 95.81 61.85C97 61.85 97.96 60.88 97.96 59.69C97.96 58.5 97 57.53 95.81 57.53ZM81.4 57.53C80.2 57.53 79.24 58.5 79.24 59.69C79.24 60.88 80.2 61.85 81.4 61.85C82.59 61.85 83.56 60.88 83.56 59.69C83.56 58.5 82.59 57.53 81.4 57.53ZM66.99 57.53C65.8 57.53 64.83 58.5 64.83 59.69C64.83 60.88 65.8 61.85 66.99 61.85C68.18 61.85 69.15 60.88 69.15 59.69C69.15 58.5 68.18 57.53 66.99 57.53ZM95.81 43.15C94.61 43.15 93.64 44.12 93.64 45.31C93.64 46.5 94.61 47.46 95.81 47.46C97 47.46 97.96 46.5 97.96 45.31C97.96 44.12 97 43.15 95.81 43.15ZM81.4 43.15C80.2 43.15 79.24 44.12 79.24 45.31C79.24 46.5 80.2 47.46 81.4 47.46C82.59 47.46 83.56 46.5 83.56 45.31C83.56 44.12 82.59 43.15 81.4 43.15ZM66.99 43.15C65.8 43.15 64.83 44.12 64.83 45.31C64.83 46.5 65.8 47.46 66.99 47.46C68.18 47.46 69.15 46.5 69.15 45.31C69.15 44.12 68.18 43.15 66.99 43.15ZM52.58 43.15C52.58 43.15 52.58 43.15 52.58 43.15L52.58 43.15C51.39 43.15 50.42 44.12 50.42 45.31C50.42 46.5 51.39 47.46 52.58 47.46L52.58 47.46C52.58 47.46 52.58 47.46 52.58 47.46C53.78 47.46 54.75 46.5 54.75 45.31C54.75 44.12 53.78 43.15 52.58 43.15ZM74.19 64.73C73 64.73 72.03 65.69 72.03 66.88C72.03 68.07 73 69.04 74.19 69.04C75.39 69.04 76.35 68.07 76.35 66.88C76.35 65.69 75.39 64.73 74.19 64.73ZM88.6 64.73C87.41 64.73 86.44 65.69 86.44 66.88C86.44 68.07 87.41 69.04 88.6 69.04C89.79 69.04 90.76 68.07 90.76 66.88C90.76 65.69 89.79 64.73 88.6 64.73ZM74.19 50.34C73 50.34 72.03 51.31 72.03 52.5C72.03 53.69 73 54.66 74.19 54.66C75.39 54.66 76.35 53.69 76.35 52.5C76.35 51.31 75.39 50.34 74.19 50.34ZM90.76 52.5C90.76 51.31 89.79 50.34 88.6 50.34C87.41 50.34 86.44 51.31 86.44 52.5C86.44 53.69 87.41 54.66 88.6 54.66C89.79 54.66 90.76 53.69 90.76 52.5ZM103.01 50.34C101.81 50.34 100.85 51.31 100.85 52.5C100.85 53.69 101.81 54.66 103.01 54.66C104.2 54.66 105.17 53.69 105.17 52.5C105.17 51.31 104.2 50.34 103.01 50.34ZM59.79 50.34C58.59 50.34 57.63 51.31 57.63 52.5C57.63 53.69 58.59 54.66 59.79 54.66C60.98 54.66 61.95 53.69 61.95 52.5C61.95 51.31 60.98 50.34 59.79 50.34ZM66.99 86.3C65.8 86.3 64.83 87.27 64.83 88.46C64.83 89.65 65.8 90.62 66.99 90.62C68.18 90.62 69.15 89.65 69.15 88.46C69.15 87.27 68.18 86.3 66.99 86.3ZM81.4 71.92C80.2 71.92 79.24 72.88 79.24 74.07C79.24 75.27 80.2 76.23 81.4 76.23C82.59 76.23 83.56 75.27 83.56 74.07C83.56 72.88 82.59 71.92 81.4 71.92ZM66.99 71.92C65.8 71.92 64.83 72.88 64.83 74.07C64.83 75.27 65.8 76.23 66.99 76.23C68.18 76.23 69.15 75.27 69.15 74.07C69.15 72.88 68.18 71.92 66.99 71.92ZM52.58 71.92C52.58 71.92 52.58 71.92 52.58 71.92L52.58 71.92C51.39 71.92 50.42 72.88 50.42 74.07C50.42 75.27 51.39 76.23 52.58 76.23L52.58 76.23C52.58 76.23 52.58 76.23 52.58 76.23C53.78 76.23 54.75 75.27 54.75 74.07C54.75 72.88 53.78 71.92 52.58 71.92ZM74.19 79.11C73 79.11 72.03 80.07 72.03 81.27C72.03 82.46 73 83.42 74.19 83.42C75.39 83.42 76.35 82.46 76.35 81.27C76.35 80.07 75.39 79.11 74.19 79.11ZM59.79 79.11C58.59 79.11 57.63 80.07 57.63 81.27C57.63 82.46 58.59 83.42 59.79 83.42C60.98 83.42 61.95 82.46 61.95 81.27C61.95 80.07 60.98 79.11 59.79 79.11ZM52.58 100.68C52.58 100.68 52.58 100.68 52.58 100.68L52.58 100.68C51.39 100.68 50.42 101.65 50.42 102.84C50.42 104.03 51.39 105 52.58 105L52.58 105C52.58 105 52.58 105 52.58 105C53.78 105 54.75 104.03 54.75 102.84C54.75 101.65 53.78 100.68 52.58 100.68ZM52.58 4.31C53.78 4.31 54.74 3.35 54.74 2.16C54.74 0.96 53.78 0 52.58 0C51.39 0 50.42 0.96 50.42 2.16C50.42 3.35 51.39 4.31 52.58 4.31ZM45.38 7.19C44.19 7.19 43.22 8.16 43.22 9.35C43.22 10.54 44.19 11.5 45.38 11.5C46.57 11.5 47.54 10.54 47.54 9.35C47.54 8.16 46.57 7.19 45.38 7.19ZM59.79 11.5C60.98 11.5 61.95 10.54 61.95 9.35C61.95 8.16 60.98 7.19 59.79 7.19C58.59 7.19 57.63 8.16 57.63 9.35C57.63 10.54 58.59 11.5 59.79 11.5ZM52.58 33.08C53.78 33.08 54.74 32.11 54.74 30.92C54.74 29.73 53.78 28.77 52.58 28.77C51.39 28.77 50.42 29.73 50.42 30.92C50.42 32.11 51.39 33.08 52.58 33.08ZM45.38 35.96C44.19 35.96 43.22 36.92 43.22 38.12C43.22 39.31 44.19 40.27 45.38 40.27C46.57 40.27 47.54 39.31 47.54 38.12C47.54 36.92 46.57 35.96 45.38 35.96ZM59.79 40.27C60.98 40.27 61.95 39.31 61.95 38.12C61.95 36.92 60.98 35.96 59.79 35.96C58.59 35.96 57.63 36.92 57.63 38.12C57.63 39.31 58.59 40.27 59.79 40.27ZM45.38 21.57C44.19 21.57 43.22 22.54 43.22 23.73C43.22 24.92 44.19 25.89 45.38 25.89C46.57 25.89 47.54 24.92 47.54 23.73C47.54 22.54 46.57 21.57 45.38 21.57ZM31.82 21.74C31.56 21.63 31.27 21.57 30.97 21.57L30.97 21.57L30.97 21.57C30.08 21.57 29.31 22.12 28.98 22.89C28.87 23.15 28.81 23.43 28.81 23.73C28.81 24.03 28.87 24.31 28.98 24.57C29.31 25.35 30.08 25.89 30.97 25.89L30.97 25.89L30.97 25.89C31.27 25.89 31.56 25.83 31.82 25.72C32.59 25.39 33.13 24.63 33.13 23.73C33.13 22.84 32.59 22.07 31.82 21.74ZM52.58 61.85C53.78 61.85 54.74 60.88 54.74 59.69C54.74 58.5 53.78 57.53 52.58 57.53C51.39 57.53 50.42 58.5 50.42 59.69C50.42 60.88 51.39 61.85 52.58 61.85ZM45.38 64.73C44.19 64.73 43.22 65.69 43.22 66.88C43.22 68.07 44.19 69.04 45.38 69.04C46.57 69.04 47.54 68.07 47.54 66.88C47.54 65.69 46.57 64.73 45.38 64.73ZM59.79 69.04C60.98 69.04 61.95 68.07 61.95 66.88C61.95 65.69 60.98 64.73 59.79 64.73C58.59 64.73 57.63 65.69 57.63 66.88C57.63 68.07 58.59 69.04 59.79 69.04ZM45.38 50.34C44.19 50.34 43.22 51.31 43.22 52.5C43.22 53.69 44.19 54.66 45.38 54.66C46.57 54.66 47.54 53.69 47.54 52.5C47.54 51.31 46.57 50.34 45.38 50.34ZM31.82 50.51C31.56 50.4 31.27 50.34 30.97 50.34L30.97 50.34L30.97 50.34C30.08 50.34 29.31 50.88 28.98 51.66C28.87 51.92 28.81 52.2 28.81 52.5C28.81 52.8 28.87 53.08 28.98 53.34C29.31 54.11 30.08 54.66 30.97 54.66L30.97 54.66L30.97 54.66C31.27 54.66 31.56 54.6 31.82 54.49C32.59 54.16 33.13 53.39 33.13 52.5C33.13 51.61 32.59 50.84 31.82 50.51ZM52.58 90.62C53.78 90.62 54.74 89.65 54.74 88.46C54.74 87.27 53.78 86.3 52.58 86.3C51.39 86.3 50.42 87.27 50.42 88.46C50.42 89.65 51.39 90.62 52.58 90.62ZM45.38 93.49C44.19 93.49 43.22 94.46 43.22 95.65C43.22 96.84 44.19 97.81 45.38 97.81C46.57 97.81 47.54 96.84 47.54 95.65C47.54 94.46 46.57 93.49 45.38 93.49ZM59.79 93.49C58.59 93.49 57.63 94.46 57.63 95.65C57.63 96.84 58.59 97.81 59.79 97.81C60.98 97.81 61.95 96.84 61.95 95.65C61.95 94.46 60.98 93.49 59.79 93.49ZM45.38 79.11C44.19 79.11 43.22 80.07 43.22 81.27C43.22 82.46 44.19 83.42 45.38 83.42C46.57 83.42 47.54 82.46 47.54 81.27C47.54 80.07 46.57 79.11 45.38 79.11ZM31.82 79.28C31.56 79.17 31.27 79.11 30.97 79.11L30.97 79.11L30.97 79.11C30.08 79.11 29.31 79.65 28.98 80.43C28.87 80.68 28.81 80.97 28.81 81.27C28.81 81.56 28.87 81.85 28.98 82.11C29.31 82.88 30.08 83.42 30.97 83.42L30.97 83.42L30.97 83.42C31.27 83.42 31.56 83.36 31.82 83.25C32.59 82.93 33.13 82.16 33.13 81.27C33.13 80.37 32.59 79.61 31.82 79.28ZM38.18 28.77L38.18 28.77C38.18 28.77 38.18 28.77 38.18 28.77C37.28 28.77 36.51 29.31 36.19 30.08C36.08 30.34 36.02 30.62 36.02 30.92C36.02 31.22 36.08 31.5 36.19 31.76C36.51 32.54 37.28 33.08 38.18 33.08C38.18 33.08 38.18 33.08 38.18 33.08L38.18 33.08C39.07 33.08 39.84 32.54 40.17 31.76C40.28 31.5 40.34 31.22 40.34 30.92C40.34 30.62 40.28 30.34 40.17 30.08C39.84 29.31 39.07 28.77 38.18 28.77ZM23.77 28.77C22.58 28.77 21.61 29.73 21.61 30.92C21.61 32.11 22.58 33.08 23.77 33.08C24.96 33.08 25.93 32.11 25.93 30.92C25.93 29.73 24.96 28.77 23.77 28.77ZM38.18 14.38L38.18 14.38C38.18 14.38 38.18 14.38 38.18 14.38C37.28 14.38 36.51 14.92 36.19 15.7C36.08 15.96 36.02 16.24 36.02 16.54C36.02 16.84 36.08 17.12 36.19 17.38C36.51 18.15 37.28 18.7 38.18 18.7C38.18 18.7 38.18 18.7 38.18 18.7L38.18 18.7C39.07 18.7 39.84 18.15 40.17 17.38C40.28 17.12 40.34 16.84 40.34 16.54C40.34 16.24 40.28 15.96 40.17 15.7C39.84 14.92 39.07 14.38 38.18 14.38ZM16.57 35.96C15.37 35.96 14.41 36.92 14.41 38.12C14.41 39.31 15.37 40.27 16.57 40.27C17.76 40.27 18.73 39.31 18.73 38.12C18.73 36.92 17.76 35.96 16.57 35.96ZM30.97 35.96C29.78 35.96 28.81 36.92 28.81 38.12C28.81 39.31 29.78 40.27 30.97 40.27C32.17 40.27 33.13 39.31 33.13 38.12C33.13 36.92 32.17 35.96 30.97 35.96ZM38.18 57.53L38.18 57.53C38.18 57.53 38.18 57.53 38.18 57.53C37.28 57.53 36.51 58.08 36.19 58.85C36.08 59.11 36.02 59.39 36.02 59.69C36.02 59.99 36.08 60.27 36.19 60.53C36.51 61.31 37.28 61.85 38.18 61.85C38.18 61.85 38.18 61.85 38.18 61.85L38.18 61.85C39.07 61.85 39.84 61.31 40.17 60.53C40.28 60.27 40.34 59.99 40.34 59.69C40.34 59.39 40.28 59.11 40.17 58.85C39.84 58.08 39.07 57.53 38.18 57.53ZM23.77 57.53C22.58 57.53 21.61 58.5 21.61 59.69C21.61 60.88 22.58 61.85 23.77 61.85C24.96 61.85 25.93 60.88 25.93 59.69C25.93 58.5 24.96 57.53 23.77 57.53ZM9.36 57.53C8.17 57.53 7.2 58.5 7.2 59.69C7.2 60.88 8.17 61.85 9.36 61.85C10.56 61.85 11.52 60.88 11.52 59.69C11.52 58.5 10.56 57.53 9.36 57.53ZM38.18 43.15L38.18 43.15C38.18 43.15 38.18 43.15 38.18 43.15C37.28 43.15 36.51 43.69 36.19 44.47C36.08 44.73 36.02 45.01 36.02 45.31C36.02 45.6 36.08 45.89 36.19 46.15C36.51 46.92 37.28 47.46 38.18 47.46C38.18 47.46 38.18 47.46 38.18 47.46L38.18 47.46C39.07 47.46 39.84 46.92 40.17 46.15C40.28 45.89 40.34 45.6 40.34 45.31C40.34 45.01 40.28 44.73 40.17 44.47C39.84 43.69 39.07 43.15 38.18 43.15ZM23.77 43.15C22.58 43.15 21.61 44.12 21.61 45.31C21.61 46.5 22.58 47.46 23.77 47.46C24.96 47.46 25.93 46.5 25.93 45.31C25.93 44.12 24.96 43.15 23.77 43.15ZM9.36 43.15C8.17 43.15 7.2 44.12 7.2 45.31C7.2 46.5 8.17 47.46 9.36 47.46C10.56 47.46 11.52 46.5 11.52 45.31C11.52 44.12 10.56 43.15 9.36 43.15ZM16.57 64.73C15.37 64.73 14.41 65.69 14.41 66.88C14.41 68.07 15.37 69.04 16.57 69.04C17.76 69.04 18.73 68.07 18.73 66.88C18.73 65.69 17.76 64.73 16.57 64.73ZM30.97 64.73C29.78 64.73 28.81 65.69 28.81 66.88C28.81 68.07 29.78 69.04 30.97 69.04C32.17 69.04 33.13 68.07 33.13 66.88C33.13 65.69 32.17 64.73 30.97 64.73ZM16.57 50.34C15.37 50.34 14.41 51.31 14.41 52.5C14.41 53.69 15.37 54.66 16.57 54.66C17.76 54.66 18.73 53.69 18.73 52.5C18.73 51.31 17.76 50.34 16.57 50.34ZM2.16 50.34C0.97 50.34 0 51.31 0 52.5C0 53.69 0.97 54.66 2.16 54.66C3.35 54.66 4.32 53.69 4.32 52.5C4.32 51.31 3.35 50.34 2.16 50.34ZM38.18 86.3L38.18 86.3C38.18 86.3 38.18 86.3 38.18 86.3C37.28 86.3 36.51 86.84 36.19 87.62C36.08 87.88 36.02 88.16 36.02 88.46C36.02 88.76 36.08 89.04 36.19 89.3C36.51 90.07 37.28 90.62 38.18 90.62C38.18 90.62 38.18 90.62 38.18 90.62L38.18 90.62C39.07 90.62 39.84 90.07 40.17 89.3C40.28 89.04 40.34 88.76 40.34 88.46C40.34 88.16 40.28 87.88 40.17 87.62C39.84 86.84 39.07 86.3 38.18 86.3ZM38.18 71.92L38.18 71.92C38.18 71.92 38.18 71.92 38.18 71.92C37.28 71.92 36.51 72.46 36.19 73.23C36.08 73.49 36.02 73.78 36.02 74.07C36.02 74.37 36.08 74.66 36.19 74.91C36.51 75.69 37.28 76.23 38.18 76.23C38.18 76.23 38.18 76.23 38.18 76.23L38.18 76.23C39.07 76.23 39.84 75.69 40.17 74.91C40.28 74.66 40.34 74.37 40.34 74.07C40.34 73.78 40.28 73.49 40.17 73.23C39.84 72.46 39.07 71.92 38.18 71.92ZM23.77 71.92C22.58 71.92 21.61 72.88 21.61 74.07C21.61 75.27 22.58 76.23 23.77 76.23C24.96 76.23 25.93 75.27 25.93 74.07C25.93 72.88 24.96 71.92 23.77 71.92Z" />
		</g>
	</g>
</svg>