<svg version="1.2" baseProfile="tiny-ps" xmlns="http://www.w3.org/2000/svg" viewBox="0 0 20 15" width="20" height="15">
	<title>shop</title>
	<style>
		tspan { white-space:pre }
		.shp0 { fill: #8d8d8d } 
	</style>
	<g id="shop">
		<g id="view bar">
			<g id="view_type">
				<path id="list" class="shp0" d="M0.01 0L4.43 0L4.43 4.17L0.01 4.17L0.01 0ZM5.83 0L19.99 0L19.99 4.17L5.83 4.17L5.83 0ZM0.01 5.41L4.43 5.41L4.43 9.59L0.01 9.59L0.01 5.41ZM5.83 5.41L19.99 5.41L19.99 9.59L5.83 9.59L5.83 5.41ZM0.01 10.83L4.43 10.83L4.43 15L0.01 15L0.01 10.83ZM5.83 10.83L19.99 10.83L19.99 15L5.83 15L5.83 10.83Z" />
			</g>
		</g>
	</g>
</svg>